<?xml version="1.0" standalone="no"?>
<!DOCTYPE svg PUBLIC "-//W3C//DTD SVG 20010904//EN"
 "http://www.w3.org/TR/2001/REC-SVG-20010904/DTD/svg10.dtd">
<svg version="1.0" xmlns="http://www.w3.org/2000/svg"
 width="512.000000pt" height="512.000000pt" viewBox="0 0 512.000000 512.000000"
 preserveAspectRatio="xMidYMid meet">
<metadata>
Created by potrace 1.15, written by Peter Selinger 2001-2017
</metadata>
<g transform="translate(0.000000,512.000000) scale(0.100000,-0.100000)"
fill="#000000" stroke="none">
<path d="M2365 5003 c-108 -9 -341 -47 -430 -69 -1020 -255 -1772 -1122 -1875
-2163 -21 -209 -11 -489 25 -706 27 -160 94 -375 171 -550 288 -655 834 -1148
1514 -1370 250 -81 497 -118 780 -118 402 2 754 85 1106 263 253 128 417 246
627 450 390 377 638 867 723 1425 26 169 26 532 0 700 -59 382 -189 724 -393
1027 -113 170 -198 272 -339 409 -285 276 -580 455 -954 580 -293 97 -675 146
-955 122z m430 -384 c228 -25 475 -98 690 -204 648 -320 1086 -938 1175 -1660
15 -116 15 -384 0 -500 -102 -824 -664 -1514 -1441 -1769 -236 -78 -422 -107
-674 -107 -253 0 -443 30 -675 107 -630 209 -1135 714 -1344 1344 -77 232
-107 422 -107 675 0 341 69 643 216 940 401 813 1248 1273 2160 1174z"/>
<path d="M2385 4374 c-234 -27 -286 -38 -449 -94 -296 -102 -560 -274 -767
-500 -108 -117 -157 -183 -232 -310 -121 -204 -205 -432 -243 -665 -25 -150
-25 -429 0 -579 88 -538 406 -1014 866 -1298 458 -283 1039 -354 1546 -188
567 186 1002 610 1194 1165 67 195 88 315 97 550 15 411 -86 764 -319 1113
-250 373 -673 663 -1121 767 -147 34 -439 54 -572 39z m520 -327 c308 -78 521
-200 745 -426 224 -226 340 -431 420 -741 29 -111 33 -145 37 -306 6 -199 -3
-290 -43 -444 -76 -291 -202 -511 -418 -726 -145 -144 -256 -224 -424 -306
-127 -61 -207 -89 -364 -125 -114 -26 -138 -28 -328 -28 -202 1 -207 1 -353
38 -436 108 -781 366 -1003 747 -157 270 -234 608 -206 908 30 314 128 575
307 818 209 283 523 495 855 580 195 49 233 54 440 50 185 -3 202 -5 335 -39z"/>
<path d="M2500 3750 c-20 -5 -48 -23 -67 -44 -29 -31 -33 -43 -33 -88 0 -65
15 -95 59 -125 73 -49 185 -16 211 63 15 43 8 105 -14 139 -29 44 -97 68 -156
55z"/>
<path d="M3279 3430 c-14 -4 -73 -34 -130 -66 -57 -31 -138 -76 -179 -99 -298
-165 -400 -221 -505 -280 -66 -37 -147 -83 -181 -101 -34 -19 -68 -42 -76 -52
-8 -9 -52 -84 -98 -167 -45 -82 -104 -188 -130 -235 -113 -200 -306 -549 -333
-600 -24 -46 -28 -63 -23 -103 9 -81 58 -127 136 -127 45 0 130 41 400 194 41
24 120 68 175 98 55 31 159 88 230 128 72 40 167 93 213 118 53 30 89 57 101
77 62 106 124 216 337 600 217 392 238 434 238 478 0 91 -90 162 -175 137z
m-458 -726 c-185 -334 -147 -292 -377 -418 -109 -60 -220 -122 -246 -137 -27
-16 -48 -25 -48 -21 1 8 47 96 177 332 l91 165 104 58 c199 113 403 225 406
222 1 -1 -47 -92 -107 -201z"/>
<path d="M1372 2640 c-70 -43 -93 -135 -49 -201 65 -98 208 -85 252 23 50 126
-89 248 -203 178z"/>
<path d="M3559 2637 c-151 -100 -22 -330 139 -248 49 25 75 69 75 127 0 112
-124 182 -214 121z"/>
<path d="M2501 1560 c-73 -17 -120 -101 -99 -178 26 -96 134 -134 218 -78 82
54 78 196 -8 239 -40 21 -73 25 -111 17z"/>
</g>
</svg>
