<?xml version="1.0" standalone="no"?>
<!DOCTYPE svg PUBLIC "-//W3C//DTD SVG 20010904//EN"
 "http://www.w3.org/TR/2001/REC-SVG-20010904/DTD/svg10.dtd">
<svg version="1.0" xmlns="http://www.w3.org/2000/svg"
 width="344.000000pt" height="341.000000pt" viewBox="0 0 344.000000 341.000000"
 preserveAspectRatio="xMidYMid meet">
<metadata>
Created by potrace 1.15, written by Peter Selinger 2001-2017
</metadata>
<g transform="translate(0.000000,341.000000) scale(0.100000,-0.100000)"
fill="#000000" stroke="none">
<path d="M1580 3359 c-527 -47 -1000 -341 -1283 -799 -296 -480 -324 -1108
-70 -1614 300 -598 917 -964 1573 -933 432 21 812 188 1115 492 337 336 514
789 492 1255 -21 430 -190 812 -492 1115 -286 285 -647 451 -1055 485 -129 11
-146 11 -280 -1z m-215 -369 c0 -22 -9 -28 -65 -48 -145 -51 -308 -144 -433
-246 -61 -49 -90 -55 -95 -19 -2 16 13 35 65 76 128 103 268 184 413 238 90
34 115 34 115 -1z m1118 -561 c8 -13 -45 -109 -262 -470 -150 -250 -280 -462
-289 -471 -28 -27 -914 -558 -933 -558 -48 0 -29 39 249 500 l279 463 459 278
c253 152 465 277 473 276 8 -1 18 -9 24 -18z"/>
</g>
</svg>
