<?xml version="1.0" standalone="no"?>
<!DOCTYPE svg PUBLIC "-//W3C//DTD SVG 20010904//EN"
 "http://www.w3.org/TR/2001/REC-SVG-20010904/DTD/svg10.dtd">
<svg version="1.0" xmlns="http://www.w3.org/2000/svg"
 width="512.000000pt" height="512.000000pt" viewBox="0 0 512.000000 512.000000"
 preserveAspectRatio="xMidYMid meet">
<metadata>
Created by potrace 1.15, written by Peter Selinger 2001-2017
</metadata>
<g transform="translate(0.000000,512.000000) scale(0.100000,-0.100000)"
fill="#000000" stroke="none">
<path d="M1890 4330 c-8 -4 -46 -23 -83 -41 -40 -19 -82 -49 -101 -71 l-33
-38 -116 0 c-71 0 -117 -4 -117 -10 0 -5 -12 -10 -27 -10 -16 0 -65 -13 -110
-29 -199 -68 -344 -208 -467 -448 -13 -26 -36 -61 -50 -78 -15 -16 -31 -46
-36 -65 -9 -32 -31 -68 -155 -258 -22 -33 -59 -94 -82 -134 -24 -40 -68 -113
-98 -161 -30 -48 -55 -92 -55 -97 0 -5 -15 -29 -34 -53 -19 -24 -46 -66 -61
-93 -15 -27 -42 -74 -61 -105 -19 -31 -34 -61 -34 -67 0 -5 -7 -15 -16 -23
-20 -17 -66 -108 -92 -186 -50 -145 -57 -197 -56 -413 0 -189 2 -213 27 -302
26 -97 103 -288 116 -288 4 0 25 -30 46 -67 40 -69 243 -283 268 -283 6 0 39
-20 71 -45 33 -24 96 -60 141 -79 86 -37 259 -86 304 -86 15 0 32 -5 38 -11
18 -18 285 -5 393 19 143 31 320 99 374 143 6 5 51 38 100 74 49 36 111 91
139 123 27 31 60 67 73 80 61 62 175 295 211 429 22 85 26 125 30 306 l5 207
218 0 218 0 5 -207 c4 -184 8 -220 32 -311 35 -134 164 -390 221 -437 7 -5 34
-36 62 -67 27 -32 89 -87 138 -123 49 -36 94 -69 100 -74 54 -44 231 -112 374
-143 103 -23 372 -37 393 -20 7 5 36 12 65 16 144 18 326 94 469 194 104 73
238 210 288 296 21 36 42 66 46 66 13 0 90 190 116 288 34 131 44 391 19 527
-28 153 -98 339 -140 374 -9 8 -16 18 -16 23 0 6 -15 36 -34 67 -19 31 -48 82
-65 114 -17 32 -40 68 -51 79 -10 11 -27 37 -36 57 -15 30 -77 140 -102 177
-4 6 -19 29 -33 50 -14 21 -43 71 -63 109 -21 39 -50 86 -64 105 -15 19 -32
44 -38 55 -34 63 -127 221 -134 225 -3 3 -36 56 -71 117 -98 171 -192 275
-311 346 -65 39 -200 87 -244 87 -13 0 -24 5 -24 10 0 6 -46 10 -117 10 l-116
0 -33 38 c-19 22 -61 52 -101 71 -37 18 -76 37 -85 42 -24 12 -178 12 -178 -1
0 -5 -8 -10 -17 -10 -61 0 -181 -97 -221 -179 l-27 -56 -3 -352 -3 -353 -219
0 -219 0 -3 353 -3 352 -27 56 c-40 82 -160 179 -221 179 -9 0 -17 5 -17 10 0
12 -158 13 -180 0z m163 -204 c63 -26 104 -99 95 -169 -3 -26 -4 -25 -68 33
-36 33 -93 75 -127 92 -59 31 -61 33 -40 45 30 16 100 16 140 -1z m1154 1 c21
-12 19 -14 -40 -45 -34 -17 -91 -59 -127 -92 -64 -58 -65 -59 -68 -33 -9 69
31 142 93 169 38 17 113 17 142 1z m-1488 -162 c121 -32 221 -95 290 -185 28
-36 57 -72 65 -80 7 -8 26 -49 42 -90 l29 -75 2 -460 c3 -446 3 -459 -15 -437
-70 89 -158 180 -242 250 -64 52 -244 152 -274 152 -9 0 -16 4 -16 10 0 13
-106 44 -223 65 -151 27 -374 17 -526 -23 -62 -16 -116 -34 -120 -39 -3 -4
-19 -14 -34 -21 -27 -11 -27 -11 -16 11 7 12 30 50 51 85 21 34 38 65 38 69 0
9 133 237 147 251 8 8 21 28 30 45 8 17 21 36 27 42 6 7 36 56 66 109 127 227
296 334 525 335 56 1 123 -5 154 -14z m1981 -1 c168 -50 283 -146 380 -320 30
-53 60 -102 65 -108 10 -11 100 -165 128 -221 8 -16 27 -43 41 -60 14 -16 29
-39 32 -49 4 -11 23 -47 44 -80 20 -34 42 -71 49 -83 11 -22 11 -22 -16 -11
-15 7 -31 17 -34 21 -4 5 -58 23 -120 39 -148 39 -381 50 -524 24 -106 -19
-225 -55 -225 -67 0 -5 -7 -9 -16 -9 -30 0 -210 -100 -274 -152 -84 -70 -172
-161 -242 -250 -18 -22 -18 -9 -15 437 l2 460 29 75 c16 41 35 82 42 90 8 8
37 44 65 80 70 90 166 152 288 186 68 18 236 17 301 -2z m-920 -1029 l0 -245
-220 0 -220 0 0 245 0 245 220 0 220 0 0 -245z m-1434 -10 c82 -16 175 -43
184 -55 3 -3 21 -12 40 -20 79 -31 208 -120 285 -196 84 -84 127 -142 194
-269 134 -249 133 -631 -3 -862 -20 -34 -36 -64 -36 -68 0 -16 -70 -107 -134
-174 -64 -66 -113 -105 -223 -179 -53 -36 -198 -88 -298 -107 -130 -25 -336
-17 -460 19 -90 26 -251 99 -270 121 -5 7 -47 40 -93 75 -45 34 -87 71 -93 82
-12 21 -99 139 -110 148 -30 24 -110 238 -128 344 -16 88 -13 272 5 367 18 96
84 275 114 306 10 12 35 45 54 75 35 53 79 103 152 168 58 53 101 81 189 125
44 22 82 43 85 46 8 10 138 47 200 58 88 14 262 12 346 -4z m2764 4 c70 -11
202 -47 210 -58 3 -3 23 -14 45 -25 158 -73 301 -191 381 -314 19 -30 44 -63
54 -75 30 -31 96 -210 114 -306 18 -95 21 -279 5 -367 -18 -106 -98 -320 -128
-344 -11 -9 -98 -127 -110 -148 -6 -11 -48 -48 -93 -82 -46 -35 -87 -68 -93
-74 -20 -23 -183 -97 -270 -122 -124 -36 -330 -44 -460 -19 -100 19 -245 71
-298 107 -110 74 -159 113 -223 179 -64 67 -134 158 -134 174 0 4 -16 34 -36
68 -73 124 -110 303 -101 485 10 191 58 331 176 511 80 121 269 279 394 328
23 9 44 20 47 23 8 11 101 40 176 54 84 17 256 20 344 5z m-1330 -499 l0 -70
-220 0 -220 0 0 70 0 70 220 0 220 0 0 -70z"/>
<path d="M1080 2764 c-75 -12 -145 -27 -159 -34 -9 -5 -50 -23 -91 -41 -126
-53 -251 -155 -318 -259 -19 -30 -38 -57 -42 -60 -13 -9 -47 -84 -68 -150 -46
-140 -53 -288 -23 -435 19 -91 66 -217 95 -251 8 -11 37 -48 63 -83 60 -81
196 -189 291 -230 118 -52 190 -65 347 -64 121 0 152 4 228 27 90 27 187 70
187 84 0 4 13 13 29 20 85 37 235 215 281 332 12 30 26 60 31 66 14 17 37 132
44 219 8 92 -13 249 -40 311 -81 184 -115 236 -220 335 -65 61 -185 137 -245
154 -14 4 -43 16 -66 26 -63 28 -236 46 -324 33z m175 -194 c38 -6 72 -14 75
-18 3 -4 37 -20 75 -35 129 -50 245 -158 305 -283 17 -34 30 -67 30 -73 0 -6
4 -11 9 -11 16 0 34 -102 35 -190 0 -78 -18 -188 -33 -200 -3 -3 -23 -40 -45
-83 -42 -84 -93 -152 -135 -178 -14 -9 -40 -30 -58 -47 -40 -37 -167 -87 -259
-102 -205 -34 -428 55 -565 224 -134 164 -172 383 -102 585 24 72 48 119 65
132 4 3 25 28 45 55 65 87 106 114 308 206 54 24 153 31 250 18z"/>
<path d="M3827 2759 c-38 -5 -87 -17 -110 -28 -23 -10 -53 -22 -67 -26 -60
-17 -180 -93 -245 -154 -105 -99 -139 -151 -220 -335 -27 -62 -48 -219 -40
-311 7 -87 30 -202 44 -219 5 -6 19 -36 31 -66 46 -117 196 -295 281 -332 16
-7 29 -16 29 -20 0 -14 97 -57 187 -84 76 -23 107 -27 228 -27 157 -1 229 12
347 64 95 41 231 149 291 230 26 35 55 73 64 84 29 35 81 177 99 270 19 104
14 262 -11 358 -45 174 -180 366 -325 464 -25 17 -75 43 -110 58 -36 15 -78
33 -95 41 -76 34 -256 50 -378 33z m213 -190 c35 -5 69 -14 75 -18 5 -4 33
-16 60 -26 28 -10 67 -29 87 -42 21 -12 42 -23 47 -23 18 0 143 -136 178 -194
69 -113 97 -285 69 -424 -22 -108 -46 -162 -112 -249 -137 -182 -364 -278
-578 -243 -92 15 -219 65 -259 102 -18 17 -44 38 -58 47 -42 26 -93 94 -135
178 -22 43 -42 80 -45 83 -15 12 -33 122 -33 200 1 88 19 190 35 190 5 0 9 5
9 11 0 6 13 39 30 73 60 125 176 233 305 283 39 15 73 31 76 35 5 8 100 25
154 27 17 0 59 -4 95 -10z"/>
</g>
</svg>
