<?xml version="1.0" standalone="no"?>
<!DOCTYPE svg PUBLIC "-//W3C//DTD SVG 20010904//EN"
 "http://www.w3.org/TR/2001/REC-SVG-20010904/DTD/svg10.dtd">
<svg version="1.0" xmlns="http://www.w3.org/2000/svg"
 width="512.000000pt" height="552.000000pt" viewBox="0 0 512.000000 552.000000"
 preserveAspectRatio="xMidYMid meet">
<metadata>
Created by potrace 1.15, written by Peter Selinger 2001-2017
</metadata>
<g transform="translate(0.000000,552.000000) scale(0.100000,-0.100000)"
fill="#000000" stroke="none">
<path d="M2525 5282 c-38 -21 -161 -91 -200 -114 -17 -10 -126 -73 -243 -140
-118 -68 -230 -133 -250 -146 -20 -12 -50 -29 -67 -37 -16 -9 -48 -27 -70 -40
-22 -13 -54 -32 -72 -42 -18 -10 -92 -53 -165 -95 -177 -103 -181 -106 -268
-156 -41 -23 -82 -47 -90 -52 -8 -6 -26 -16 -40 -22 -14 -7 -40 -23 -58 -35
-18 -12 -52 -31 -75 -43 -23 -12 -62 -35 -87 -51 -25 -16 -56 -33 -70 -39 -13
-6 -79 -44 -145 -83 -66 -40 -127 -75 -136 -79 -47 -19 -130 -82 -148 -111
l-21 -35 0 -1281 0 -1282 27 -35 c19 -23 91 -70 216 -142 104 -59 205 -117
225 -129 21 -12 51 -30 69 -40 18 -10 145 -83 284 -163 138 -80 274 -158 302
-173 29 -16 68 -39 87 -51 43 -26 48 -30 183 -108 60 -35 141 -81 182 -103 40
-22 111 -62 156 -90 100 -59 124 -73 164 -93 17 -8 37 -20 45 -27 8 -7 40 -26
70 -42 30 -17 78 -44 106 -60 69 -42 142 -73 168 -73 25 0 139 61 376 200 96
57 191 111 210 122 33 18 71 40 150 85 19 11 58 34 85 51 28 16 127 74 220
128 219 126 506 292 525 304 8 5 123 71 255 145 400 227 396 225 430 280 l30
48 3 1201 c3 1236 0 1315 -37 1366 -19 26 -75 68 -126 95 -16 9 -113 65 -215
124 -102 60 -239 140 -305 177 -66 37 -156 89 -200 115 -44 26 -103 60 -131
76 -29 15 -102 57 -163 93 -155 90 -172 101 -233 137 -82 49 -89 54 -308 178
-238 135 -234 133 -280 162 -19 12 -84 49 -145 82 -119 66 -162 75 -220 43z
m39 -415 c11 -17 35 -61 54 -97 19 -36 41 -72 48 -81 8 -8 14 -18 14 -22 0 -4
20 -41 45 -83 25 -41 45 -77 45 -79 0 -2 14 -24 30 -49 17 -24 37 -59 46 -78
8 -18 35 -64 59 -103 25 -38 54 -88 65 -110 11 -22 25 -48 32 -58 11 -14 10
-19 -2 -27 -17 -11 -1730 -14 -1818 -3 -30 3 -51 10 -49 16 2 6 24 22 49 36
25 14 130 75 234 135 104 60 213 123 242 140 30 17 61 36 70 41 79 48 162 95
167 95 3 0 31 16 62 36 31 20 63 39 72 42 13 6 82 46 191 112 45 27 167 96
180 101 8 4 39 23 69 42 29 20 58 34 65 31 6 -2 20 -19 30 -37z m615 -255 c80
-48 349 -204 499 -288 20 -11 78 -44 127 -73 50 -29 200 -116 335 -193 313
-179 340 -197 340 -217 -1 -20 -15 -47 -163 -302 -66 -112 -158 -271 -206
-354 -50 -87 -94 -151 -104 -153 -9 -2 -17 2 -17 8 0 6 -16 39 -36 73 -35 59
-48 82 -94 162 -11 19 -30 52 -41 73 -12 20 -32 55 -45 77 -12 22 -33 58 -45
80 -24 44 -89 155 -181 307 -32 54 -58 100 -58 103 0 2 -13 26 -28 52 -16 27
-55 93 -86 148 -32 55 -61 107 -66 115 -5 8 -37 64 -72 123 -35 59 -73 125
-85 145 -12 20 -30 51 -39 67 -9 17 -22 37 -29 45 -19 23 -28 60 -15 60 7 0
55 -26 109 -58z m-1583 -875 c4 -4 -2 -21 -14 -37 -12 -16 -22 -33 -22 -38 0
-5 -9 -17 -20 -27 -11 -10 -20 -24 -20 -30 0 -7 -15 -38 -32 -68 -18 -31 -62
-106 -98 -166 -36 -61 -81 -139 -101 -174 -42 -73 -72 -124 -98 -169 -11 -18
-59 -103 -108 -188 -49 -85 -110 -190 -136 -232 -26 -43 -47 -80 -47 -83 0 -3
-15 -30 -34 -59 -19 -29 -50 -83 -70 -121 -20 -37 -40 -73 -46 -80 -5 -6 -24
-38 -41 -71 -38 -72 -48 -84 -65 -84 -11 0 -12 134 -7 813 4 572 9 814 17 820
14 10 932 5 942 -6z m1569 7 l51 -6 89 -155 c50 -86 99 -172 111 -193 11 -20
37 -64 57 -97 21 -34 37 -63 37 -66 0 -3 22 -41 48 -84 26 -43 65 -109 86
-148 21 -38 44 -77 51 -85 11 -13 64 -107 103 -183 17 -33 10 -84 -17 -118
-15 -20 -208 -351 -261 -447 -9 -16 -44 -75 -78 -133 -34 -58 -62 -108 -62
-112 0 -3 -18 -35 -40 -69 -22 -35 -40 -68 -40 -74 0 -6 -7 -17 -16 -24 -8 -8
-22 -27 -29 -44 -8 -17 -19 -38 -24 -46 -18 -27 -97 -163 -160 -275 -34 -60
-69 -121 -77 -135 -8 -14 -39 -68 -70 -120 -30 -52 -59 -102 -64 -110 -5 -8
-15 -27 -22 -42 -11 -22 -46 -83 -123 -210 -5 -9 -46 -80 -90 -157 -44 -77
-85 -140 -91 -141 -12 0 -87 41 -259 142 -60 35 -125 73 -143 84 -19 10 -74
43 -123 71 -49 29 -118 68 -152 87 -91 49 -127 70 -228 131 -51 30 -98 55
-105 55 -7 0 -15 4 -19 9 -3 5 -54 37 -113 71 -114 66 -152 89 -204 119 -18
10 -91 53 -163 95 -71 41 -170 97 -218 123 -97 53 -112 74 -81 121 10 15 25
39 34 55 8 15 51 88 95 163 44 74 92 157 108 182 15 26 32 58 37 71 6 13 19
35 29 50 28 39 221 380 221 390 0 5 7 14 16 21 8 8 22 27 30 44 7 17 22 45 33
61 20 33 44 75 101 175 121 211 195 339 215 370 13 19 42 71 65 115 23 44 48
87 55 95 11 13 105 179 105 185 0 1 24 42 54 91 l53 89 69 6 c95 8 1057 10
1119 3z m1381 -1301 l-1 -818 -450 -3 c-247 -1 -460 0 -473 3 -31 7 -25 23 53
155 34 58 89 152 122 210 34 58 77 132 96 165 20 33 57 98 83 145 26 47 57
101 69 120 21 32 216 369 270 465 12 22 52 91 89 154 37 63 81 141 98 173 16
32 33 56 38 53 4 -2 7 -372 6 -822z m-476 -1150 c0 -10 -42 -53 -52 -53 -6 0
-102 -53 -198 -110 -34 -20 -149 -85 -200 -113 -30 -16 -62 -36 -71 -43 -8 -8
-19 -14 -23 -14 -6 0 -57 -28 -181 -103 -17 -10 -61 -36 -100 -58 -91 -52
-105 -60 -134 -81 -64 -47 -54 -4 32 143 41 68 83 140 95 159 11 19 46 80 78
135 92 162 43 145 426 145 180 0 328 -3 328 -7z"/>
<path d="M2468 3239 c-262 -63 -437 -281 -440 -547 -1 -135 43 -258 132 -370
38 -48 155 -142 176 -142 5 0 26 -9 46 -20 96 -51 315 -51 433 1 141 62 222
140 291 277 l49 97 0 156 c0 100 -4 161 -11 170 -6 8 -17 32 -24 54 -26 81
-172 236 -268 284 -51 26 -209 61 -266 60 -23 -1 -76 -9 -118 -20z m182 -319
c106 -20 190 -124 190 -236 0 -101 -47 -168 -159 -224 -37 -18 -53 -21 -105
-15 -70 8 -109 29 -159 84 -46 51 -61 99 -55 181 4 54 11 76 36 112 39 57 98
96 153 101 24 2 45 4 45 5 1 1 25 -2 54 -8z"/>
</g>
</svg>
