<?xml version="1.0" standalone="no"?>
<!DOCTYPE svg PUBLIC "-//W3C//DTD SVG 20010904//EN"
 "http://www.w3.org/TR/2001/REC-SVG-20010904/DTD/svg10.dtd">
<svg version="1.0" xmlns="http://www.w3.org/2000/svg"
 width="365.000000pt" height="369.000000pt" viewBox="0 0 365.000000 369.000000"
 preserveAspectRatio="xMidYMid meet">
<metadata>
Created by potrace 1.15, written by Peter Selinger 2001-2017
</metadata>
<g transform="translate(0.000000,369.000000) scale(0.100000,-0.100000)"
fill="#000000" stroke="none">
<path d="M1668 3639 c-622 -49 -1181 -430 -1458 -994 -438 -889 -67 -1969 825
-2401 803 -389 1767 -127 2267 615 403 600 403 1392 0 1992 -364 540 -985 840
-1634 788z m412 -165 c522 -89 966 -415 1197 -879 125 -249 176 -466 176 -740
-1 -228 -35 -410 -118 -613 -220 -544 -704 -924 -1290 -1013 -103 -16 -357
-16 -460 0 -1026 156 -1657 1191 -1318 2164 201 578 718 1004 1318 1086 166
23 342 21 495 -5z"/>
<path d="M2097 2870 c-95 -24 -178 -94 -224 -188 -24 -48 -28 -70 -28 -137 0
-70 4 -89 33 -150 l34 -70 -139 -133 c-76 -73 -189 -181 -251 -239 l-113 -106
-57 29 c-49 24 -69 28 -142 29 -73 0 -93 -4 -142 -28 -74 -36 -151 -120 -173
-188 -41 -123 -15 -245 71 -338 74 -80 132 -106 244 -106 99 0 152 20 219 80
l41 38 346 -84 345 -84 23 -58 c42 -102 112 -170 213 -204 61 -21 182 -13 244
16 62 29 127 95 158 161 22 47 26 68 26 145 -1 78 -4 97 -28 143 -106 203
-356 250 -524 98 -40 -36 -103 -140 -103 -170 0 -9 -6 -16 -14 -16 -13 0 -486
113 -586 140 l-35 9 0 103 c0 87 -4 111 -23 153 l-24 50 170 166 c94 91 209
200 255 243 l85 77 72 -22 c172 -52 333 19 408 179 22 47 27 71 27 137 0 91
-21 149 -80 221 -68 83 -220 131 -328 104z"/>
</g>
</svg>
