<?xml version="1.0" standalone="no"?>
<!DOCTYPE svg PUBLIC "-//W3C//DTD SVG 20010904//EN"
 "http://www.w3.org/TR/2001/REC-SVG-20010904/DTD/svg10.dtd">
<svg version="1.0" xmlns="http://www.w3.org/2000/svg"
 width="503.000000pt" height="507.000000pt" viewBox="0 0 503.000000 507.000000"
 preserveAspectRatio="xMidYMid meet">
<metadata>
Created by potrace 1.15, written by Peter Selinger 2001-2017
</metadata>
<g transform="translate(0.000000,507.000000) scale(0.100000,-0.100000)"
fill="#000000" stroke="none">
<path d="M2193 4974 c-370 -44 -741 -180 -1048 -382 -602 -395 -987 -994
-1100 -1709 -23 -141 -30 -434 -16 -589 48 -515 249 -989 583 -1379 412 -480
972 -778 1604 -851 253 -30 622 -7 874 52 491 118 949 401 1289 799 268 312
461 700 540 1084 97 465 54 993 -115 1421 -195 492 -552 920 -997 1196 -228
141 -520 260 -787 321 -226 51 -582 67 -827 37z m404 -182 c112 -80 56 -265
-80 -265 -87 0 -151 60 -151 143 0 57 20 91 75 128 42 29 111 26 156 -6z m208
-426 c481 -86 925 -361 1208 -748 78 -108 100 -144 161 -266 86 -171 135 -330
177 -572 20 -112 17 -440 -4 -565 -79 -456 -317 -863 -678 -1154 -328 -266
-739 -410 -1169 -411 -722 0 -1376 408 -1690 1055 -254 523 -252 1115 5 1640
280 571 822 953 1468 1035 105 13 416 4 522 -14z m-1758 -194 c112 -80 56
-265 -80 -265 -87 0 -151 60 -151 143 0 57 20 91 75 128 42 29 111 26 156 -6z
m3071 -12 c42 -26 76 -99 68 -144 -27 -143 -214 -174 -278 -46 -66 130 85 266
210 190z m-3720 -1509 c99 -51 101 -199 3 -255 -43 -25 -115 -24 -150 2 -51
37 -73 82 -68 135 10 110 117 168 215 118z m4329 -20 c97 -45 110 -189 23
-251 -43 -30 -84 -35 -135 -16 -127 49 -134 217 -10 272 41 18 73 17 122 -5z
m-3698 -1509 c47 -23 72 -61 78 -113 16 -164 -212 -223 -279 -73 -56 127 77
250 201 186z m3063 -18 c83 -42 98 -163 27 -233 -104 -105 -283 5 -241 148 28
91 124 130 214 85z m-1495 -642 c112 -80 56 -265 -80 -265 -87 0 -151 60 -151
143 0 57 20 91 75 128 42 29 111 26 156 -6z"/>
<path d="M2105 4268 c-22 -5 -84 -23 -137 -39 l-98 -30 0 -1679 0 -1679 81
-26 c45 -14 102 -30 128 -36 25 -5 54 -12 64 -15 16 -5 17 83 17 1755 0 969
-3 1761 -7 1760 -5 -1 -26 -5 -48 -11z"/>
<path d="M2840 3941 c0 -183 -5 -972 -11 -1753 -6 -781 -9 -1422 -7 -1423 2
-2 21 0 43 5 22 5 55 12 74 15 18 3 63 16 100 28 l66 22 6 565 c4 311 8 1067
10 1680 l4 1115 -100 33 c-55 18 -119 35 -142 39 l-43 6 0 -332z"/>
<path d="M1154 3708 c-60 -65 -129 -158 -184 -247 l-50 -81 0 -860 0 -860 51
-82 c55 -89 161 -228 203 -267 l26 -24 0 1231 c0 678 -2 1232 -4 1232 -2 0
-21 -19 -42 -42z"/>
<path d="M3796 3410 c-3 -184 -8 -740 -11 -1234 l-5 -900 31 30 c45 42 117
135 191 245 l65 97 6 857 c6 775 5 860 -10 889 -31 60 -153 232 -206 291 l-55
60 -6 -335z"/>
</g>
</svg>
