<?xml version="1.0" standalone="no"?>
<!DOCTYPE svg PUBLIC "-//W3C//DTD SVG 20010904//EN"
 "http://www.w3.org/TR/2001/REC-SVG-20010904/DTD/svg10.dtd">
<svg version="1.0" xmlns="http://www.w3.org/2000/svg"
 width="365.000000pt" height="369.000000pt" viewBox="0 0 365.000000 369.000000"
 preserveAspectRatio="xMidYMid meet">
<metadata>
Created by potrace 1.15, written by Peter Selinger 2001-2017
</metadata>
<g transform="translate(0.000000,369.000000) scale(0.100000,-0.100000)"
fill="#000000" stroke="none">
<path d="M1668 3639 c-622 -49 -1181 -430 -1458 -994 -438 -889 -67 -1969 825
-2401 803 -389 1767 -127 2267 615 403 600 403 1392 0 1992 -364 540 -985 840
-1634 788z m412 -165 c522 -89 966 -415 1197 -879 125 -249 176 -466 176 -740
-1 -228 -35 -410 -118 -613 -220 -544 -704 -924 -1290 -1013 -103 -16 -357
-16 -460 0 -1026 156 -1657 1191 -1318 2164 201 578 718 1004 1318 1086 166
23 342 21 495 -5z"/>
<path d="M1655 2563 c-88 -13 -232 -59 -321 -103 -231 -113 -418 -301 -514
-516 -17 -36 -30 -72 -30 -80 0 -25 95 -199 141 -259 145 -189 367 -338 599
-402 105 -30 361 -42 480 -24 288 44 581 225 739 454 35 52 121 218 121 236 0
19 -79 171 -123 236 -61 91 -211 232 -310 294 -194 120 -383 172 -614 170 -76
-1 -151 -4 -168 -6z m256 -233 c168 -32 325 -175 373 -339 65 -222 -64 -468
-296 -562 -43 -18 -73 -22 -158 -22 -91 0 -114 3 -171 27 -91 37 -185 117
-232 197 -55 94 -70 154 -65 264 3 83 8 101 41 168 97 196 305 305 508 267z"/>
<path d="M1738 2137 c-57 -16 -127 -76 -162 -137 -27 -48 -31 -65 -31 -130 1
-64 5 -83 30 -129 54 -98 144 -151 256 -151 108 0 207 59 253 152 33 66 36
180 7 244 -56 123 -213 190 -353 151z"/>
</g>
</svg>
